<?xml version="1.0" standalone="no"?>
<!DOCTYPE svg PUBLIC "-//W3C//DTD SVG 20010904//EN"
 "http://www.w3.org/TR/2001/REC-SVG-20010904/DTD/svg10.dtd">
<svg version="1.0" xmlns="http://www.w3.org/2000/svg"
 width="628.000000pt" height="397.000000pt" viewBox="0 0 628.000000 397.000000"
 preserveAspectRatio="xMidYMid meet">

<g transform="translate(0.000000,397.000000) scale(0.100000,-0.100000)"
fill="#000000" stroke="none">
<path d="M2810 3859 c-415 -46 -747 -137 -1049 -288 -550 -277 -874 -683 -906
-1139 -5 -62 -12 -101 -18 -99 -5 1 -38 48 -72 102 -37 60 -79 113 -104 132
-38 29 -61 39 -142 57 -15 3 -40 20 -58 38 l-31 32 0 -55 c0 -31 -3 -58 -6
-62 -10 -10 -60 13 -84 38 -28 30 -23 61 8 57 51 -7 68 45 30 93 -11 15 -55
53 -96 84 -41 31 -85 64 -98 74 -28 22 -29 17 -10 -38 8 -22 24 -89 35 -150
11 -60 36 -159 56 -219 32 -100 39 -114 85 -158 46 -44 55 -48 98 -48 56 0 67
6 81 43 12 31 25 33 64 9 19 -11 39 -42 61 -93 48 -112 127 -218 246 -332 59
-56 115 -115 126 -132 71 -115 221 -279 349 -382 263 -213 675 -389 1120 -479
44 -9 86 -20 93 -26 14 -12 16 -54 4 -62 -14 -9 -280 50 -424 94 -396 119
-780 326 -992 533 -85 84 -147 170 -225 310 -46 83 -66 108 -105 135 -27 18
-54 31 -60 31 -10 -2 -37 4 -91 18 -11 3 -33 20 -49 37 l-29 31 6 -58 c5 -47
3 -59 -10 -64 -20 -8 -81 25 -94 50 -13 24 -3 51 16 44 8 -4 24 2 37 12 39 33
9 73 -121 164 -61 42 -113 77 -116 77 -3 0 3 -17 14 -37 10 -21 28 -80 40
-132 50 -215 115 -375 157 -391 13 -5 24 -16 24 -23 0 -17 42 -37 76 -37 38 0
82 27 86 52 2 19 9 23 36 21 43 -1 56 -14 87 -81 117 -256 322 -432 690 -591
283 -123 598 -199 978 -237 42 -4 66 -11 64 -17 -2 -6 -59 -24 -128 -39 -190
-42 -237 -58 -241 -81 -2 -13 -20 -26 -58 -40 -94 -34 -185 -110 -224 -186
-23 -43 -21 -44 24 -15 46 31 130 45 130 23 0 -8 -9 -46 -20 -85 -22 -80 -36
-195 -26 -219 4 -13 16 3 42 54 69 137 135 178 344 211 74 12 159 26 188 31
l52 10 0 44 0 43 88 8 c150 13 780 10 833 -3 15 -4 19 -15 19 -44 0 -50 10
-54 185 -80 161 -23 194 -31 247 -59 66 -33 117 -88 154 -164 31 -64 33 -66
40 -42 8 34 -1 108 -27 209 -11 43 -17 83 -13 89 11 17 82 2 125 -26 47 -32
49 -24 8 37 -40 61 -107 120 -167 146 -83 37 -97 47 -94 64 2 11 -6 18 -25 23
-15 3 -41 10 -58 14 -16 5 -79 18 -140 30 -155 29 -155 29 -155 45 0 8 6 15
13 15 6 0 73 7 147 15 379 42 719 140 1016 290 173 88 255 145 359 249 89 89
144 165 198 272 27 53 43 74 66 84 39 16 61 7 61 -24 0 -18 8 -27 31 -35 57
-20 87 -14 125 24 19 19 38 35 42 35 25 0 89 169 138 363 19 77 42 150 51 163
20 32 11 30 -45 -8 -178 -119 -217 -162 -192 -208 8 -15 19 -20 38 -18 21 2
28 -2 30 -19 2 -16 -7 -29 -37 -48 -22 -15 -48 -25 -58 -23 -15 3 -18 12 -15
63 l4 60 -31 -31 c-21 -21 -47 -34 -88 -43 -114 -26 -159 -63 -216 -177 -180
-361 -593 -647 -1207 -838 -156 -49 -417 -109 -431 -100 -5 3 -9 16 -9 29 0
31 31 51 95 59 151 21 400 91 575 163 381 156 689 383 856 630 33 47 82 107
109 132 154 141 232 240 302 383 25 51 55 101 67 110 32 26 56 22 67 -12 8
-23 20 -32 50 -40 22 -6 50 -8 62 -4 28 8 99 80 119 119 23 44 74 230 98 351
11 58 27 118 35 134 9 17 12 30 9 30 -13 0 -195 -143 -220 -173 -41 -49 -27
-97 27 -97 15 0 31 -5 34 -10 11 -17 -60 -80 -89 -80 -25 0 -26 2 -26 57 l0
57 -31 -32 c-21 -21 -47 -35 -85 -43 -108 -24 -142 -58 -271 -266 -7 -13 -17
-23 -21 -23 -4 0 -13 53 -19 118 -15 149 -42 251 -96 366 -108 227 -263 403
-513 581 -348 249 -827 413 -1363 465 -120 12 -532 11 -641 -1z m688 -54 c939
-98 1688 -580 1848 -1191 22 -84 27 -121 27 -239 0 -120 -4 -154 -26 -239
-142 -533 -731 -974 -1523 -1139 -250 -53 -356 -62 -689 -62 -241 1 -338 5
-435 18 -625 89 -1121 314 -1455 658 -163 168 -261 334 -312 529 -20 76 -25
121 -26 225 -2 144 14 234 63 362 212 551 933 983 1795 1077 180 19 550 20
733 1z"/>
<path d="M2942 3625 c-14 -17 -102 -21 -102 -5 0 6 -21 10 -46 10 -38 0 -45
-3 -42 -17 3 -16 16 -18 108 -16 123 3 150 8 150 28 0 20 -51 19 -68 0z"/>
<path d="M2503 3575 c-10 -17 -106 -38 -111 -24 -6 14 -56 11 -78 -6 -24 -19
-6 -34 34 -28 153 24 212 42 212 64 0 15 -48 10 -57 -6z"/>
<path d="M3015 3560 c-42 -13 -52 -32 -46 -82 5 -35 11 -44 33 -52 19 -7 35
-6 55 4 l28 13 -27 11 c-24 8 -28 16 -28 48 0 31 4 39 24 44 13 3 35 4 47 2
22 -3 25 -9 29 -63 5 -57 7 -60 33 -63 27 -3 27 -3 27 56 0 42 -5 63 -16 73
-19 16 -118 22 -159 9z"/>
<path d="M4017 3551 c24 -22 190 -77 201 -66 4 4 -4 16 -17 26 -18 14 -26 17
-32 8 -10 -17 -59 -2 -86 27 -14 16 -33 24 -54 24 l-33 0 21 -19z"/>
<path d="M2825 3550 c-11 -5 -34 -6 -51 -3 -17 2 -48 -2 -69 -11 l-38 -16 7
-52 c4 -29 13 -56 19 -60 16 -10 69 -10 86 1 18 11 5 31 -20 31 -17 0 -20 6
-17 42 3 45 26 64 35 29 8 -30 50 -29 55 2 2 12 10 22 18 22 11 0 18 -18 24
-63 7 -47 13 -61 24 -57 7 3 21 5 29 5 13 0 15 10 10 61 -3 35 -11 65 -19 70
-17 11 -67 10 -93 -1z"/>
<path d="M3405 3536 c-16 -12 -17 -16 -6 -30 13 -16 71 -22 84 -9 4 3 2 12 -4
20 -9 10 -6 13 14 13 35 0 57 -10 57 -25 0 -18 -23 -25 -81 -25 -28 0 -59 -5
-70 -10 -52 -29 10 -66 91 -55 34 5 50 3 50 -4 0 -6 14 -11 31 -11 24 0 30 4
27 18 -3 14 -15 17 -68 17 -84 0 -89 18 -8 25 72 6 88 13 88 41 0 13 -12 25
-35 35 -44 18 -145 18 -170 0z"/>
<path d="M3974 3518 c-12 -20 28 -40 69 -35 42 6 96 -8 112 -28 14 -17 52 -28
59 -16 9 14 -24 30 -124 63 -96 31 -106 33 -116 16z"/>
<path d="M2543 3513 c-20 -7 -15 -23 6 -23 15 0 21 -12 31 -65 13 -68 5 -95
-26 -95 -8 0 -14 -4 -14 -10 0 -25 103 6 113 35 3 7 2 30 -3 51 -4 22 -11 56
-14 77 -7 35 -9 37 -44 36 -20 0 -43 -3 -49 -6z"/>
<path d="M3658 3508 c-9 -7 -19 -32 -23 -54 -6 -36 -3 -44 17 -58 26 -18 74
-21 83 -5 4 6 -2 13 -14 16 -14 4 -21 13 -21 30 0 57 41 80 86 48 19 -13 20
-19 11 -65 -11 -57 -12 -55 24 -63 25 -6 27 -4 38 50 13 68 8 77 -62 98 -62
18 -118 19 -139 3z"/>
<path d="M2368 3480 c-42 -13 -88 -43 -88 -58 0 -18 52 -7 63 14 11 20 55 36
77 29 27 -9 37 -75 14 -92 -25 -19 -65 -17 -58 2 5 11 -1 15 -23 15 -16 0 -38
-7 -49 -15 -19 -15 -19 -15 0 -30 25 -19 59 -19 123 0 65 19 88 44 79 86 -3
18 -11 38 -17 46 -12 14 -78 16 -121 3z"/>
<path d="M3928 3463 c-22 -6 -31 -32 -17 -49 9 -11 8 -14 -5 -14 -13 0 -17 -7
-14 -27 4 -33 47 -58 80 -47 l21 6 -22 17 c-23 18 -19 31 11 31 10 0 18 5 18
10 0 6 -7 10 -15 10 -8 0 -15 9 -15 20 0 24 36 27 64 7 17 -13 18 -18 6 -65
-15 -58 -15 -58 21 -67 24 -6 26 -3 39 48 7 30 9 60 5 67 -17 28 -137 64 -177
53z"/>
<path d="M4164 3382 c15 -17 15 -22 1 -55 -8 -21 -20 -37 -25 -37 -5 0 -7 -7
-4 -15 4 -8 16 -15 28 -15 11 0 43 -11 70 -25 77 -39 93 -35 122 31 14 31 24
58 22 59 -13 10 -51 26 -54 22 -3 -3 -13 -27 -24 -53 -20 -53 -35 -62 -65 -40
-20 14 -20 15 -2 63 18 48 18 48 -4 66 -12 9 -35 17 -52 17 -29 0 -29 -1 -13
-18z"/>
<path d="M1857 3381 c-10 -4 -17 -11 -16 -16 5 -16 -74 -56 -99 -50 -24 6 -82
-19 -82 -36 0 -5 7 -12 16 -16 21 -8 224 93 224 112 0 16 -14 18 -43 6z"/>
<path d="M3430 3385 c0 -17 39 -45 62 -45 32 0 44 15 28 35 -11 14 -90 22 -90
10z"/>
<path d="M1994 3359 c-55 -21 -94 -52 -94 -75 0 -26 29 -84 42 -85 40 -4 88
17 88 38 0 9 -8 11 -23 8 -18 -5 -26 -1 -35 20 -17 37 -15 52 10 69 40 28 57
20 84 -39 24 -51 26 -54 50 -43 28 13 29 23 8 74 -25 61 -45 66 -130 33z"/>
<path d="M4581 3362 c-7 -13 -7 -22 1 -30 8 -8 5 -9 -9 -6 -34 9 -39 -17 -9
-43 15 -12 33 -23 41 -23 19 0 29 20 17 32 -8 8 -6 18 6 36 15 23 15 25 -3 38
-25 18 -32 18 -44 -4z"/>
<path d="M1812 3283 c-10 -10 -33 -25 -53 -34 -47 -22 -99 -67 -99 -86 0 -22
51 -10 110 26 35 22 51 26 59 18 21 -21 13 -40 -16 -34 -33 6 -70 -7 -100 -35
-27 -25 -28 -32 -7 -53 18 -17 48 -13 77 13 23 20 22 34 -3 30 -10 -2 -19 2
-19 7 0 6 21 9 51 7 51 -3 98 16 98 40 0 16 -62 118 -72 118 -4 0 -16 -8 -26
-17z m-17 -53 c-8 -13 -66 -43 -71 -37 -7 7 47 47 63 47 8 0 11 -5 8 -10z"/>
<path d="M4410 3291 c0 -6 5 -13 10 -16 17 -10 11 -23 -11 -27 -37 -5 -47 -33
-23 -65 27 -37 111 -82 151 -83 27 0 36 6 58 43 14 24 25 48 25 54 0 9 -50 37
-55 31 -1 -2 -12 -22 -23 -44 -12 -23 -27 -44 -34 -46 -20 -8 -56 9 -68 32 -9
18 -6 23 25 41 42 25 44 41 9 68 -28 22 -64 28 -64 12z"/>
<path d="M2875 3269 c-504 -51 -941 -223 -1199 -469 -252 -241 -290 -473 -118
-722 40 -58 172 -184 252 -240 226 -160 562 -284 921 -340 206 -32 609 -32
814 0 288 45 518 116 734 228 154 80 233 135 338 238 279 269 282 544 11 814
-235 234 -620 403 -1074 472 -159 24 -529 35 -679 19z m491 -54 c192 -20 298
-39 459 -80 465 -119 834 -377 925 -645 24 -70 24 -175 1 -232 l-11 -28 -122
0 -122 0 -146 143 c-80 78 -237 232 -349 341 l-203 199 -87 -85 c-47 -46 -98
-94 -113 -107 l-28 -24 -141 134 c-78 74 -182 174 -231 222 l-89 88 -210 -203
c-116 -112 -215 -205 -220 -206 -5 -2 -52 37 -103 88 l-94 92 -198 -194 c-110
-106 -269 -261 -354 -345 l-155 -153 -117 0 -117 0 -16 52 c-98 332 325 715
966 872 215 53 367 71 690 85 20 0 103 -6 185 -14z m-487 -882 l116 -113 -314
0 c-173 0 -311 3 -307 8 3 4 73 73 154 154 l147 147 44 -42 c25 -23 97 -93
160 -154z m981 -109 c0 -2 -129 -4 -287 -3 l-288 0 144 139 144 139 144 -136
c78 -74 143 -137 143 -139z m-784 -149 l11 -40 53 0 53 0 11 40 c11 38 14 40
55 43 54 4 71 -10 71 -59 0 -43 2 -45 58 -58 42 -9 42 -9 64 30 24 43 40 47
93 25 34 -14 34 -15 28 -63 -5 -48 -5 -48 31 -66 50 -23 57 -22 87 14 28 35
45 34 92 -4 l29 -22 -18 -44 -17 -44 34 -28 c42 -35 47 -35 89 -4 l34 25 25
-23 c49 -43 51 -49 30 -82 -11 -16 -23 -38 -26 -47 -5 -18 -33 -26 -33 -9 0 4
12 25 26 46 l25 38 -25 25 c-23 24 -27 24 -43 10 -46 -40 -60 -41 -107 -6 -52
38 -57 51 -39 95 18 44 17 48 -14 62 -24 11 -29 9 -58 -19 -36 -35 -40 -36
-86 -14 -61 30 -69 42 -62 90 5 41 4 44 -23 54 -24 10 -31 9 -39 -6 -5 -9 -19
-28 -31 -42 -20 -25 -21 -25 -80 -11 -58 14 -59 14 -66 57 -9 56 -14 62 -47
62 -24 0 -30 -5 -35 -32 -10 -49 -23 -58 -86 -58 -63 0 -74 7 -85 58 -6 27
-11 32 -35 32 -34 0 -39 -6 -48 -62 -7 -43 -8 -43 -66 -57 -65 -15 -64 -16
-106 48 -13 20 -19 21 -44 12 -27 -11 -28 -14 -22 -55 6 -39 4 -46 -19 -64
-15 -12 -42 -26 -62 -33 -33 -10 -37 -9 -67 20 -30 29 -35 31 -59 20 -31 -14
-32 -15 -12 -62 19 -46 20 -41 -17 -76 -58 -54 -72 -58 -114 -26 l-36 28 -25
-26 -26 -25 27 -34 c14 -19 26 -40 26 -46 0 -19 -27 -14 -33 6 -3 9 -15 31
-26 48 l-21 30 38 37 38 37 36 -25 c20 -14 41 -25 45 -25 5 0 24 13 43 29 l34
28 -17 43 c-19 49 -15 57 39 86 l36 19 27 -32 c31 -38 40 -39 88 -16 35 16 35
17 30 65 -6 49 -6 50 28 64 54 22 69 18 94 -26 20 -35 26 -39 49 -34 66 16 72
22 72 62 0 50 15 64 70 60 43 -3 45 -5 56 -43z m-34 -30 c11 -42 34 -55 98
-55 64 0 87 13 98 55 6 20 16 31 30 33 19 3 22 -1 22 -36 0 -48 12 -59 82 -78
65 -17 81 -12 107 31 25 43 53 38 51 -9 -4 -62 -1 -65 65 -98 l65 -32 33 32
c35 34 75 36 62 3 -4 -9 -9 -31 -12 -48 -5 -29 0 -38 33 -68 52 -48 79 -53
125 -27 32 19 39 20 49 7 10 -13 9 -19 -5 -35 -9 -10 -20 -34 -24 -52 -6 -28
-13 -34 -54 -46 l-47 -13 -48 41 c-210 186 -510 273 -782 229 -162 -26 -346
-111 -468 -218 l-58 -50 -52 15 c-43 13 -52 19 -52 38 0 13 -10 36 -22 51 -21
27 -21 28 -3 41 15 11 21 10 43 -6 36 -29 63 -25 117 16 44 34 47 39 42 73 -3
20 -8 43 -12 52 -12 31 25 31 61 -1 19 -16 36 -30 38 -30 13 0 116 51 122 61
4 7 6 31 6 54 -3 58 21 68 49 20 26 -43 42 -48 107 -31 70 19 82 30 82 78 0
35 3 39 22 36 14 -2 24 -13 30 -33z m191 -245 c43 -38 96 -124 83 -137 -3 -3
-9 3 -13 13 -3 10 -13 29 -21 41 -16 25 -30 21 -89 -26 l-33 -26 51 -51 c28
-29 48 -57 45 -63 -14 -22 -41 -10 -69 30 -15 22 -34 42 -42 45 -8 3 -38 -14
-70 -40 -32 -25 -61 -44 -66 -40 -20 12 -7 35 41 71 28 20 50 42 50 47 0 6
-14 25 -32 43 -32 33 -63 43 -70 22 -5 -16 -38 1 -38 21 0 31 54 80 89 80 32
0 42 -14 16 -24 -9 -3 -12 -12 -8 -23 8 -24 74 -93 88 -93 7 0 32 18 56 41
l44 41 -40 34 c-22 18 -35 34 -29 34 6 0 32 -18 57 -40z"/>
<path d="M1499 3168 c-64 -44 -89 -72 -76 -84 11 -12 57 18 57 37 0 21 46 53
66 45 16 -6 64 20 64 35 0 22 -54 5 -111 -33z"/>
<path d="M4621 3121 c-17 -21 -31 -46 -31 -54 0 -15 54 -67 70 -67 17 0 20 19
5 34 -14 14 -14 18 7 46 15 20 29 30 40 27 32 -9 17 22 -19 42 -33 17 -39 14
-72 -28z"/>
<path d="M1575 3123 c-44 -22 -115 -94 -115 -115 0 -24 13 -23 35 2 10 11 15
20 11 20 -16 0 17 41 44 55 28 14 29 14 56 -18 l27 -32 -48 -7 c-78 -11 -121
-71 -73 -102 13 -8 24 -6 45 10 15 12 29 29 31 38 3 14 -1 16 -24 10 -19 -5
-25 -4 -20 5 4 6 27 11 50 11 44 0 96 29 96 53 0 18 -59 87 -73 87 -7 -1 -25
-8 -42 -17z"/>
<path d="M4721 3040 c-22 -28 -30 -47 -26 -60 7 -23 52 -60 71 -60 19 0 18 29
-1 36 -20 8 -19 14 11 48 22 24 29 28 44 18 15 -9 17 -8 13 9 -5 18 -50 49
-71 49 -5 0 -23 -18 -41 -40z"/>
<path d="M1280 2980 c-11 -11 -20 -27 -20 -35 0 -8 9 -15 20 -15 23 0 60 33
60 55 0 22 -36 19 -60 -5z"/>
<path d="M1374 2954 c-16 -24 -16 -26 2 -38 59 -42 67 -52 60 -79 -12 -51 -76
-57 -76 -7 0 23 -23 42 -43 34 -19 -7 -47 -48 -47 -69 0 -17 16 -20 25 -5 10
16 25 1 25 -25 0 -77 111 -7 155 99 l16 38 -42 39 c-23 21 -46 39 -50 39 -5 0
-16 -11 -25 -26z"/>
<path d="M4870 2960 c-13 -8 -10 -19 18 -73 17 -34 32 -70 32 -80 0 -33 -38
-15 -64 31 -5 9 -3 12 6 10 13 -3 18 3 18 20 0 14 -40 52 -55 52 -31 0 -9 -78
37 -131 39 -44 76 -63 93 -49 21 18 19 30 -15 96 -17 31 -29 62 -27 68 4 10
19 -11 59 -83 10 -19 25 -31 38 -31 29 0 25 20 -11 55 -17 16 -40 45 -52 64
-28 44 -57 63 -77 51z"/>
<path d="M5035 2940 c-9 -14 4 -50 18 -50 28 1 39 17 28 39 -12 22 -36 28 -46
11z"/>
<path d="M1195 2528 c-3 -7 -11 -31 -18 -53 l-14 -40 -61 -3 c-34 -2 -62 -6
-62 -10 0 -4 21 -20 45 -37 50 -34 51 -36 30 -95 -22 -63 -20 -65 35 -25 l51
37 40 -28 c22 -15 42 -31 45 -36 3 -4 9 -8 14 -8 5 0 0 26 -11 58 l-20 57 24
20 c13 11 37 30 53 42 l29 22 -67 0 -66 1 -17 55 c-18 57 -23 63 -30 43z"/>
<path d="M5066 2485 l-17 -54 -67 -3 -67 -3 50 -34 c28 -19 52 -36 54 -37 2
-2 -6 -30 -17 -63 -11 -34 -19 -61 -16 -61 2 0 26 16 54 36 l50 36 50 -37 c55
-40 57 -38 35 25 -8 23 -15 48 -15 54 0 6 23 27 52 46 l51 35 -69 5 -69 5 -14
53 c-8 28 -17 52 -21 52 -3 0 -14 -25 -24 -55z"/>
<path d="M1494 1750 l-21 -100 25 -16 c23 -15 29 -14 116 16 50 18 93 34 95
36 2 2 -7 12 -20 23 -23 19 -24 19 -79 -6 -95 -43 -92 -44 -69 28 10 35 19 70
19 78 0 12 -27 40 -40 41 -3 0 -15 -45 -26 -100z"/>
<path d="M4684 1778 c-87 -59 -118 -138 -74 -186 29 -31 61 -36 106 -17 43 18
104 72 104 92 0 7 8 13 19 13 37 0 41 23 10 58 -16 17 -31 32 -35 32 -3 0 -26
-16 -50 -37 -29 -23 -41 -40 -35 -46 6 -6 18 -3 32 7 29 20 39 20 39 0 0 -26
-65 -84 -94 -84 -33 0 -66 33 -66 66 0 41 62 92 104 85 11 -2 46 29 46 41 0
19 -61 6 -106 -24z"/>
<path d="M4486 1627 c-16 -12 -15 -16 10 -60 14 -27 24 -50 21 -53 -3 -3 -40
6 -83 20 -71 24 -79 25 -101 11 -12 -9 -23 -18 -23 -21 0 -4 18 -40 41 -80 38
-69 42 -73 62 -63 12 7 23 13 25 14 2 2 -11 29 -29 61 -25 44 -29 56 -16 51
10 -4 49 -16 88 -28 57 -17 75 -19 96 -10 18 8 23 16 18 29 -13 35 -76 142
-84 142 -4 0 -15 -6 -25 -13z"/>
<path d="M1718 1578 c-81 -48 -86 -53 -68 -65 12 -9 33 -12 52 -8 26 4 42 -1
73 -23 22 -15 40 -36 40 -46 0 -17 30 -46 47 -46 4 0 8 46 8 103 l0 103 -29
17 c-16 9 -31 17 -33 17 -1 -1 -42 -24 -90 -52z m102 -43 c0 -39 -9 -43 -46
-19 l-25 17 28 18 c39 26 43 24 43 -16z"/>
<path d="M1957 1446 c-19 -44 -32 -84 -28 -87 3 -4 15 -10 27 -13 18 -6 24 1
41 46 11 29 24 52 29 51 4 -1 20 -34 34 -74 24 -64 51 -97 81 -99 8 0 73 159
68 164 -2 2 -13 8 -24 14 -18 10 -23 5 -46 -46 l-27 -57 -14 35 c-8 19 -22 55
-31 80 -13 34 -25 49 -46 57 l-29 11 -35 -82z"/>
<path d="M4223 1497 l-21 -12 32 -77 c18 -43 35 -80 38 -84 4 -3 17 0 31 8
l24 13 -35 83 c-20 45 -39 82 -42 82 -3 -1 -15 -6 -27 -13z"/>
<path d="M4112 1452 c-9 -7 -8 -21 7 -65 11 -31 17 -57 14 -57 -3 0 -38 18
-78 40 -64 35 -76 39 -103 29 l-30 -10 27 -82 c27 -80 42 -96 70 -78 11 7 10
19 -7 70 -11 34 -19 61 -17 61 1 0 37 -20 80 -44 68 -39 81 -43 107 -34 16 6
27 15 25 22 -2 6 -15 44 -28 84 -23 71 -35 83 -67 64z"/>
<path d="M2275 1388 c-48 -28 -60 -87 -25 -131 28 -35 100 -61 150 -54 30 4
40 2 40 -9 0 -27 38 -15 44 14 4 15 9 35 12 44 4 13 -7 20 -50 32 -66 19 -66
19 -66 2 0 -8 14 -17 30 -21 25 -6 29 -9 19 -21 -31 -38 -139 3 -139 53 0 36
9 49 42 62 33 13 92 -3 111 -29 12 -18 67 -39 67 -26 0 24 -40 58 -86 76 -61
22 -118 25 -149 8z"/>
<path d="M3842 1371 c-13 -3 -24 -8 -25 -11 -1 -3 7 -42 17 -87 20 -84 30 -96
65 -74 12 7 11 20 -4 82 -22 92 -25 97 -53 90z"/>
<path d="M2552 1331 c2 -10 17 -18 38 -21 32 -5 35 -8 35 -40 0 -19 -4 -54 -8
-76 -7 -40 -6 -42 22 -46 33 -5 35 -2 47 91 l7 53 48 -6 c39 -5 49 -4 49 8 0
10 -21 18 -72 26 -40 6 -95 15 -121 19 -41 7 -48 6 -45 -8z"/>
<path d="M3705 1341 c-28 -6 -30 -11 -43 -78 -8 -40 -18 -70 -23 -68 -4 3 -22
32 -40 65 l-32 60 -41 -6 c-22 -4 -42 -8 -44 -9 -2 -2 2 -41 9 -89 12 -86 12
-86 42 -86 28 0 29 2 23 33 -3 17 -8 52 -11 77 l-6 45 40 -70 c22 -38 45 -70
51 -69 5 1 19 2 29 3 16 1 22 14 32 71 7 39 16 70 20 70 4 0 11 -30 14 -66 7
-65 8 -65 34 -59 14 4 27 8 29 9 1 2 -4 41 -11 87 -14 89 -16 92 -72 80z"/>
<path d="M2847 1216 c-31 -47 -57 -88 -57 -91 0 -14 59 -3 71 14 12 16 23 18
71 14 45 -4 59 -10 63 -24 4 -13 16 -19 36 -19 16 0 29 3 28 8 0 4 -19 45 -42
92 -40 81 -44 85 -78 88 -34 3 -37 0 -92 -82z m108 4 c20 -39 20 -40 -20 -40
-39 0 -44 13 -19 48 19 28 20 28 39 -8z"/>
<path d="M3090 1275 c0 -11 12 -15 44 -15 l44 0 7 -75 c7 -75 7 -75 36 -75
l30 0 -6 75 -7 75 46 0 c34 0 46 4 46 15 0 13 -20 15 -120 15 -100 0 -120 -2
-120 -15z"/>
</g>
</svg>
