<svg width="28" height="24" viewBox="0 0 28 24" fill="none" xmlns="http://www.w3.org/2000/svg">
<path fill-rule="evenodd" clip-rule="evenodd" d="M3.80658 22.4671C4.45574 22.3103 4.77172 21.5734 4.43781 20.995L2.61723 17.8417C2.28332 17.2633 1.48717 17.1686 1.02679 17.6523L0.275599 18.4417C-0.0300692 18.763 -0.0877116 19.2471 0.133993 19.6311L1.64653 22.2509C1.86823 22.6349 2.31633 22.827 2.74735 22.7229L3.80658 22.4671ZM7.35644 21.6096C6.92542 21.7137 6.47732 21.5216 6.25562 21.1376L3.40269 16.1962C3.18099 15.8122 3.23863 15.328 3.5443 15.0068L17.5292 0.310725C17.9896 -0.173065 18.7857 -0.0782759 19.1196 0.500084L27.7073 15.3744C28.0412 15.9527 27.7252 16.6896 27.0761 16.8464L21.7659 18.1291C21.7689 18.1397 21.7717 18.1504 21.7744 18.1613L22.1957 19.8601C22.3286 20.3961 22.0019 20.9385 21.4658 21.0714L12.4869 23.298C11.9508 23.4309 11.4085 23.1041 11.2756 22.5681L10.8543 20.8693C10.8461 20.836 10.8396 20.8027 10.8348 20.7694L7.35644 21.6096ZM11.8249 20.6286L20.8038 18.402L21.2251 20.1008L12.2462 22.3274L11.8249 20.6286Z" fill="#959E5E"/>
</svg>
